<svg width="447" height="356" viewBox="0 0 447 356" fill="none" xmlns="http://www.w3.org/2000/svg">
  <rect x="103.5" y="2.5" width="241" height="209" rx="12.5" fill="#9B8B8B" stroke="#fff" stroke-width="5"/>
  <rect x="111" y="7" width="226" height="196" rx="10" fill="#2F2D2D"/>
  <rect x="144" y="28" width="118" height="63" rx="10" fill="#ECECEC"/>
  <rect x="267" y="28" width="36" height="63" rx="10" fill="#ECECEC"/>
  <rect x="152" y="34" width="101" height="52" rx="10" fill="#C8C8C8"/>
  <rect x="146.5" y="119.033" width="30.566" height="38.934" rx="4.474" fill="#78E398" stroke="#fff" stroke-width="5"/>
  <rect x="187.645" y="119.033" width="30.566" height="38.934" rx="4.474" fill="#F06565" stroke="#fff" stroke-width="5"/>
  <rect x="228.789" y="119.033" width="30.566" height="38.934" rx="4.474" fill="#F7C288" stroke="#fff" stroke-width="5"/>
  <rect x="269.934" y="119.033" width="30.566" height="38.934" rx="4.474" fill="#6CD3D2" stroke="#fff" stroke-width="5"/>
  <rect x="2.5" y="183.5" width="442" height="170" rx="12.5" fill="#3B624C" stroke="#fff" stroke-width="5"/>
  <rect x="10" y="191" width="427" height="75" rx="10" fill="#91CEAB"/>
  <rect x="43" y="199" width="80" height="59" rx="10" fill="#3B624C"/>
  <rect x="138" y="199" width="80" height="59" rx="10" fill="#3B624C"/>
  <rect x="233" y="199" width="80" height="59" rx="10" fill="#3B624C"/>
  <rect x="328" y="199" width="80" height="59" rx="10" fill="#3B624C"/>
  <rect x="46" y="210" width="74" height="48" rx="10" fill="#214430"/>
  <rect x="141" y="210" width="74" height="48" rx="10" fill="#214430"/>
  <rect x="236" y="210" width="74" height="48" rx="10" fill="#214430"/>
  <rect x="331" y="210" width="74" height="48" rx="10" fill="#214430"/>
  <path d="M52.214 313v-13.964h5.509q1.588 0 2.706.607 1.119.6 1.705 1.671.593 1.064.593 2.454t-.6 2.455q-.6 1.063-1.738 1.657-1.133.593-2.741.593h-3.512v-2.366h3.034q.853 0 1.405-.293.56-.3.832-.825.28-.533.28-1.221 0-.695-.28-1.213a1.87 1.87 0 0 0-.832-.812q-.56-.293-1.418-.293h-1.991V313zm15.28-13.964V313H64.59v-13.964zm5.314 14.162q-1.002 0-1.786-.348a2.87 2.87 0 0 1-1.241-1.043q-.45-.696-.45-1.732 0-.873.32-1.466a2.6 2.6 0 0 1 .873-.954 4.2 4.2 0 0 1 1.254-.546 9.5 9.5 0 0 1 1.487-.259q.914-.096 1.472-.177.56-.089.812-.259a.57.57 0 0 0 .252-.505v-.041q0-.648-.409-1.002-.402-.355-1.145-.355-.784 0-1.248.348a1.6 1.6 0 0 0-.614.859L69.7 305.5a3.65 3.65 0 0 1 .804-1.65q.6-.702 1.548-1.077.954-.382 2.21-.382.872 0 1.67.204a4.4 4.4 0 0 1 1.425.635q.627.429.988 1.104.362.669.362 1.602V313H75.95v-1.452h-.082a3 3 0 0 1-.675.866q-.422.367-1.016.579-.593.205-1.37.205m.832-2.005q.64 0 1.132-.252.49-.26.77-.696t.28-.988v-1.112a1.5 1.5 0 0 1-.375.164q-.233.069-.525.13-.294.054-.587.102l-.532.075q-.51.075-.893.239a1.4 1.4 0 0 0-.593.443 1.08 1.08 0 0 0-.211.682q0 .592.43.906.435.307 1.104.307m16.033-5.679-2.66.163a1.4 1.4 0 0 0-.293-.613 1.56 1.56 0 0 0-.593-.444q-.361-.17-.866-.17-.675 0-1.138.286-.465.28-.464.75 0 .375.3.634.3.26 1.03.416l1.895.382q1.527.314 2.277 1.009.75.696.75 1.828a2.85 2.85 0 0 1-.606 1.806q-.6.778-1.65 1.214-1.044.43-2.407.43-2.08 0-3.314-.866-1.228-.873-1.438-2.373l2.856-.15q.13.634.627.968.498.327 1.275.327.765 0 1.228-.293.47-.3.477-.77a.8.8 0 0 0-.334-.648q-.327-.26-1.01-.395l-1.813-.362q-1.534-.307-2.284-1.063-.743-.757-.743-1.93 0-1.009.545-1.739.553-.729 1.548-1.125 1.002-.395 2.346-.395 1.983 0 3.122.839 1.146.838 1.337 2.284m7.638-2.987v2.182h-6.307v-2.182zm-4.875-2.509h2.904v9.764q0 .402.123.627a.67.67 0 0 0 .341.307q.225.089.518.089.204 0 .41-.035l.313-.061.457 2.161q-.219.069-.614.157a5 5 0 0 1-.961.116q-1.05.04-1.841-.279a2.57 2.57 0 0 1-1.22-.996q-.438-.675-.43-1.704zM99.203 313v-10.473h2.904V313zm1.459-11.823a1.58 1.58 0 0 1-1.111-.429 1.4 1.4 0 0 1-.457-1.043q0-.6.457-1.03.463-.436 1.111-.436t1.104.436q.464.43.464 1.03 0 .606-.464 1.043a1.55 1.55 0 0 1-1.104.429m8.504 12.028q-1.61 0-2.768-.682a4.6 4.6 0 0 1-1.773-1.909q-.614-1.22-.614-2.809 0-1.61.621-2.823a4.6 4.6 0 0 1 1.779-1.902q1.153-.69 2.741-.689 1.371 0 2.4.498 1.03.497 1.63 1.397t.661 2.114h-2.741q-.116-.784-.613-1.261-.492-.484-1.289-.484-.675 0-1.18.368-.496.361-.777 1.057-.279.695-.279 1.684 0 1.002.272 1.704.28.702.784 1.071.505.368 1.18.368.498 0 .893-.205.402-.204.662-.593.266-.395.347-.948h2.741q-.068 1.2-.654 2.114a3.96 3.96 0 0 1-1.603 1.418q-1.022.512-2.42.512m42.048-.205v-13.964h5.509q1.588 0 2.707.607a4.1 4.1 0 0 1 1.704 1.671q.593 1.064.593 2.454t-.6 2.455q-.6 1.063-1.738 1.657-1.133.593-2.741.593h-3.512v-2.366h3.034q.853 0 1.405-.293.56-.3.832-.825.279-.533.279-1.221 0-.695-.279-1.213a1.87 1.87 0 0 0-.832-.812q-.559-.293-1.418-.293h-1.991V313zm15.081.198q-1.002 0-1.786-.348a2.9 2.9 0 0 1-1.241-1.043q-.45-.696-.45-1.732 0-.873.321-1.466.32-.593.872-.954a4.3 4.3 0 0 1 1.255-.546 9.5 9.5 0 0 1 1.486-.259q.913-.096 1.473-.177.56-.089.811-.259a.57.57 0 0 0 .253-.505v-.041q0-.648-.409-1.002-.403-.355-1.146-.355-.785 0-1.248.348a1.6 1.6 0 0 0-.613.859l-2.687-.218a3.66 3.66 0 0 1 .805-1.65q.6-.702 1.548-1.077.954-.382 2.209-.382.873 0 1.67.204a4.4 4.4 0 0 1 1.425.635q.627.429.989 1.104.361.669.361 1.602V313h-2.754v-1.452h-.082a3 3 0 0 1-.675.866 3.1 3.1 0 0 1-1.016.579q-.593.205-1.371.205m.832-2.005q.642 0 1.132-.252.49-.26.771-.696.279-.436.279-.988v-1.112q-.136.09-.375.164a7 7 0 0 1-.525.13q-.293.054-.586.102l-.532.075q-.512.075-.893.239a1.4 1.4 0 0 0-.593.443 1.08 1.08 0 0 0-.212.682q0 .592.43.906.436.307 1.104.307m7.32 5.734v-14.4h2.863v1.759h.13q.19-.422.552-.859.369-.443.955-.736.593-.3 1.472-.3 1.146 0 2.114.6.968.593 1.548 1.793.579 1.193.579 2.993 0 1.752-.566 2.959-.558 1.2-1.527 1.821a3.9 3.9 0 0 1-2.154.613q-.846 0-1.439-.279a3 3 0 0 1-.961-.702 3.6 3.6 0 0 1-.573-.866h-.089v5.604zm2.843-9.163q0 .934.259 1.629.26.696.75 1.084.49.382 1.193.382.71 0 1.2-.389.49-.395.743-1.09.26-.703.259-1.616 0-.908-.252-1.596t-.743-1.077-1.207-.389q-.71 0-1.2.375-.484.375-.743 1.064-.26.689-.259 1.623m14.079 5.441q-1.615 0-2.781-.655a4.5 4.5 0 0 1-1.787-1.868q-.627-1.214-.627-2.871 0-1.615.627-2.836a4.63 4.63 0 0 1 1.766-1.902q1.146-.682 2.686-.682 1.037 0 1.93.334.9.327 1.568.989.675.661 1.05 1.663.375.996.375 2.332v.798h-8.843v-1.8h6.109q0-.627-.273-1.112a1.95 1.95 0 0 0-.756-.756 2.16 2.16 0 0 0-1.112-.28q-.662 0-1.173.307-.505.3-.79.811a2.3 2.3 0 0 0-.294 1.125v1.712q0 .777.287 1.343.293.565.825.873.531.306 1.261.306.484 0 .886-.136.403-.136.689-.409t.436-.668l2.687.177a3.7 3.7 0 0 1-.839 1.691q-.627.716-1.623 1.118-.988.396-2.284.396m6.703-.205v-10.473h2.816v1.828h.109q.286-.975.961-1.473.675-.505 1.555-.505a4.2 4.2 0 0 1 .913.103v2.577a4 4 0 0 0-.566-.109 5 5 0 0 0-.661-.048q-.64 0-1.146.28a2.05 2.05 0 0 0-.79.763 2.2 2.2 0 0 0-.287 1.132V313zm49.142-13.964h3.641l3.845 9.382h.164l3.845-9.382h3.641V313h-2.864v-9.089h-.116l-3.613 9.021h-1.95l-3.614-9.055h-.116V313h-2.863zm22.287 14.169q-1.617 0-2.782-.655a4.5 4.5 0 0 1-1.787-1.868q-.627-1.214-.627-2.871 0-1.615.627-2.836a4.64 4.64 0 0 1 1.766-1.902q1.145-.682 2.687-.682 1.036 0 1.929.334.9.327 1.568.989.675.661 1.05 1.663.375.996.375 2.332v.798h-8.843v-1.8h6.109q0-.627-.272-1.112a1.96 1.96 0 0 0-.757-.756 2.15 2.15 0 0 0-1.112-.28q-.661 0-1.172.307-.505.3-.791.811a2.3 2.3 0 0 0-.293 1.125v1.712q0 .777.286 1.343.293.565.825.873.531.306 1.261.306.484 0 .887-.136.402-.136.688-.409.287-.273.437-.668l2.686.177a3.67 3.67 0 0 1-.839 1.691q-.627.716-1.622 1.118-.989.396-2.284.396m12.272-10.678v2.182h-6.307v-2.182zm-4.875-2.509h2.905v9.764q0 .402.123.627a.67.67 0 0 0 .34.307q.225.089.519.089.204 0 .409-.035l.313-.061.457 2.161q-.218.069-.613.157a5 5 0 0 1-.962.116q-1.05.04-1.841-.279a2.6 2.6 0 0 1-1.22-.996q-.436-.675-.43-1.704zm9.754 13.18q-1.002 0-1.787-.348a2.9 2.9 0 0 1-1.241-1.043q-.45-.696-.45-1.732 0-.873.321-1.466.32-.593.873-.954a4.2 4.2 0 0 1 1.254-.546 9.5 9.5 0 0 1 1.487-.259q.914-.096 1.472-.177.559-.089.812-.259a.57.57 0 0 0 .252-.505v-.041q0-.648-.409-1.002-.402-.355-1.146-.355-.783 0-1.247.348a1.6 1.6 0 0 0-.614.859l-2.686-.218a3.65 3.65 0 0 1 .804-1.65q.6-.702 1.548-1.077.954-.382 2.209-.382.873 0 1.67.204a4.4 4.4 0 0 1 1.425.635q.628.429.989 1.104.361.669.361 1.602V313h-2.754v-1.452h-.082a3 3 0 0 1-.675.866 3.1 3.1 0 0 1-1.016.579q-.593.205-1.37.205m.832-2.005a2.44 2.44 0 0 0 1.131-.252q.491-.26.771-.696.279-.436.279-.988v-1.112q-.137.09-.375.164a7 7 0 0 1-.525.13q-.293.054-.586.102l-.532.075q-.511.075-.893.239a1.4 1.4 0 0 0-.593.443 1.08 1.08 0 0 0-.212.682q0 .592.43.906.436.307 1.105.307m10.223-12.157V313h-2.904v-13.964zm43.766 4.514a3 3 0 0 0-.403-.88 2.5 2.5 0 0 0-.634-.654 2.7 2.7 0 0 0-.845-.416 3.6 3.6 0 0 0-1.043-.143q-1.07 0-1.882.532-.805.531-1.255 1.547-.45 1.01-.45 2.469t.444 2.481q.442 1.023 1.254 1.562.812.531 1.916.532 1.002 0 1.711-.355a2.54 2.54 0 0 0 1.091-1.016q.382-.654.382-1.548l.6.089h-3.6v-2.223h5.843v1.759q0 1.841-.777 3.164a5.3 5.3 0 0 1-2.141 2.032q-1.363.71-3.123.709-1.964 0-3.45-.866-1.486-.873-2.318-2.475-.825-1.609-.825-3.818 0-1.698.491-3.027.498-1.337 1.391-2.264a6 6 0 0 1 2.08-1.411 6.7 6.7 0 0 1 2.57-.485q1.186 0 2.209.348a5.9 5.9 0 0 1 1.814.968q.798.628 1.302 1.494.504.858.648 1.895zm10.065 9.655q-1.615 0-2.782-.655a4.5 4.5 0 0 1-1.786-1.868q-.627-1.214-.627-2.871 0-1.615.627-2.836a4.63 4.63 0 0 1 1.766-1.902q1.145-.682 2.686-.682 1.036 0 1.93.334.9.327 1.568.989.675.661 1.05 1.663.375.996.375 2.332v.798h-8.843v-1.8h6.109q0-.627-.273-1.112a1.95 1.95 0 0 0-.757-.756 2.15 2.15 0 0 0-1.111-.28q-.661 0-1.173.307-.504.3-.791.811a2.3 2.3 0 0 0-.293 1.125v1.712q0 .777.286 1.343.294.565.825.873.532.306 1.262.306.484 0 .886-.136t.689-.409.436-.668l2.687.177a3.7 3.7 0 0 1-.839 1.691q-.627.716-1.623 1.118-.988.396-2.284.396m9.607-6.26V313h-2.905v-10.473h2.769v1.848h.122a2.92 2.92 0 0 1 1.166-1.445q.819-.54 1.984-.539 1.092 0 1.903.477t1.261 1.364q.45.879.45 2.1V313h-2.905v-6.15q.007-.962-.491-1.5-.497-.546-1.37-.545-.586 0-1.036.252a1.75 1.75 0 0 0-.696.736q-.245.477-.252 1.152m13.812 6.26q-1.616 0-2.782-.655a4.5 4.5 0 0 1-1.786-1.868q-.628-1.214-.628-2.871 0-1.615.628-2.836a4.6 4.6 0 0 1 1.766-1.902q1.145-.682 2.686-.682 1.037 0 1.929.334.9.327 1.569.989.675.661 1.05 1.663.375.996.375 2.332v.798h-8.844v-1.8h6.11q0-.627-.273-1.112a1.95 1.95 0 0 0-.757-.756 2.15 2.15 0 0 0-1.111-.28q-.661 0-1.173.307-.504.3-.791.811a2.3 2.3 0 0 0-.293 1.125v1.712q0 .777.286 1.343.294.565.825.873.532.306 1.262.306.483 0 .886-.136.402-.136.689-.409t.436-.668l2.686.177a3.7 3.7 0 0 1-.838 1.691q-.628.716-1.623 1.118-.989.396-2.284.396m6.702-.205v-10.473h2.816v1.828h.109q.286-.975.961-1.473.675-.505 1.555-.505a4.2 4.2 0 0 1 .914.103v2.577a4 4 0 0 0-.566-.109 5 5 0 0 0-.662-.048q-.64 0-1.145.28a2.05 2.05 0 0 0-.791.763 2.2 2.2 0 0 0-.286 1.132V313zm10.543.198q-1.002 0-1.787-.348a2.9 2.9 0 0 1-1.241-1.043q-.45-.696-.45-1.732 0-.873.321-1.466.32-.593.873-.954a4.2 4.2 0 0 1 1.254-.546 9.5 9.5 0 0 1 1.487-.259q.914-.096 1.472-.177.559-.089.812-.259a.57.57 0 0 0 .252-.505v-.041q0-.648-.409-1.002-.402-.355-1.146-.355-.783 0-1.247.348a1.6 1.6 0 0 0-.614.859l-2.686-.218a3.65 3.65 0 0 1 .804-1.65q.6-.702 1.548-1.077.954-.382 2.209-.382.873 0 1.67.204a4.4 4.4 0 0 1 1.425.635q.628.429.989 1.104.361.669.361 1.602V313h-2.754v-1.452h-.082a3 3 0 0 1-.675.866 3.1 3.1 0 0 1-1.016.579q-.593.205-1.37.205m.832-2.005a2.44 2.44 0 0 0 1.131-.252q.491-.26.771-.696.279-.436.279-.988v-1.112q-.137.09-.375.164a7 7 0 0 1-.525.13q-.293.054-.586.102l-.532.075q-.511.075-.893.239a1.4 1.4 0 0 0-.593.443 1.08 1.08 0 0 0-.212.682q0 .592.43.906.436.307 1.105.307m10.223-12.157V313h-2.904v-13.964zm-368.05-284V29h-2.953V17.839h-.081l-3.198 2.004v-2.618l3.457-2.189zM32.293 98.19q-1.527 0-2.72-.524-1.186-.532-1.875-1.46-.682-.933-.703-2.154h2.973q.028.511.334.9.315.383.832.594.518.21 1.166.21.675 0 1.193-.238.519-.239.811-.661.294-.423.294-.975 0-.56-.314-.989-.306-.436-.886-.682-.573-.245-1.364-.245h-1.302v-2.168h1.302a2.8 2.8 0 0 0 1.18-.232q.517-.232.804-.641.286-.416.286-.968 0-.525-.252-.92a1.67 1.67 0 0 0-.695-.628 2.26 2.26 0 0 0-1.036-.225q-.6 0-1.098.218a1.9 1.9 0 0 0-.798.607q-.3.396-.32.927h-2.83q.02-1.206.689-2.127t1.8-1.438q1.139-.525 2.57-.525 1.446 0 2.53.525t1.684 1.418q.606.886.6 1.99.006 1.174-.73 1.957-.729.784-1.902.996v.109q1.54.198 2.345 1.07.812.866.805 2.168a3.4 3.4 0 0 1-.689 2.121q-.689.927-1.902 1.46-1.214.53-2.782.53M415.132 80v-2.127l4.97-4.603q.635-.613 1.064-1.104.436-.49.661-.962.225-.476.225-1.029 0-.614-.279-1.057-.28-.45-.764-.688a2.4 2.4 0 0 0-1.098-.246q-.64 0-1.118.26-.477.258-.736.742-.26.484-.259 1.153h-2.803q0-1.37.621-2.38a4.14 4.14 0 0 1 1.739-1.561q1.118-.552 2.577-.552 1.5 0 2.611.531 1.119.525 1.739 1.46t.62 2.14a4.1 4.1 0 0 1-.313 1.562q-.308.77-1.098 1.711-.791.934-2.23 2.243l-2.038 1.998v.095h5.863V80zm-.212 62.545v-2.325l5.83-9.184h2.005v3.219h-1.187l-3.675 5.815v.11h8.284v2.365zm6.703 2.455v-3.164l.054-1.029v-9.771h2.768V145zM45.472 22.151a1 1 0 0 0-.321 1.377l4.756 7.641a1 1 0 1 0 1.698-1.057l-4.228-6.791 6.792-4.228a1 1 0 0 0-1.057-1.698zm159.755 36.875-159-37-.454 1.948 159 37zm203.395 15.757a1 1 0 0 0 .161-1.405l-5.597-7.048a1 1 0 1 0-1.566 1.244l4.975 6.265-6.265 4.975a1 1 0 0 0 1.244 1.566zm-122.736-13.79 122 14 .228-1.986-122-14zM42.602 91.083a1 1 0 0 0-.52 1.315l3.582 8.257a1 1 0 0 0 1.835-.796l-3.184-7.34 7.34-3.183a1 1 0 0 0-.796-1.835zm119.765 46.987-119-47-.734 1.86 119 47z" fill="#fff"/>
  <path d="m85 229 323-90m-230 90 230-90" stroke="#fff" stroke-width="2"/>
  <path d="M408.981 139.196a1 1 0 0 0-.785-1.177l-8.825-1.765a1 1 0 0 0-.392 1.962l7.844 1.568-1.569 7.845a1 1 0 0 0 1.962.392zm-135.426 90.636 135-90-1.11-1.664-135 90z" fill="#fff"/>
  <path d="m368 229 40-90m-203 0L43 92m201 47L43 92m243 47L43 92" stroke="#fff" stroke-width="2"/>
</svg>
