<svg xmlns="http://www.w3.org/2000/svg" width="40" height="40" viewBox="0 0 40 40">
  <path style="stroke:none;fill-rule:nonzero;fill:#f9f9f9;fill-opacity:1" d="M25.602 23.387h.043v3.074l3.664-.02.437-.003h.086q.697-.007 1.395-.008l1.433-.008.805-.008q.376.001.758-.004h.277q2.781-.006 4.742-2.015l.168-.172.043.086c-.035.101-.035.101-.094.226l-.066.145-.074.156-.074.168-.208.445-.335.73-.086.188q-.3.645-.586 1.297c-2.067 4.688-2.067 4.688-3.524 6.293a9 9 0 0 0-.254.297 4 4 0 0 1-.488.473l-.121.101c-1.938 1.586-4.246 1.813-6.64 1.797l-1.258-.008V40a1.4 1.4 0 0 1-.254-.352l-.075-.136-.078-.145-.164-.3-.078-.153-.34-.613q-.374-.668-.742-1.336l-.348-.637-.14-.25-.07-.129-1.325-2.398-.07-.13-.137-.25a9 9 0 0 0-.383-.644c-.386-.601-.386-.601-.386-.84.043-.195.156-.347.273-.503.113-.168.203-.348.297-.528.082-.156.164-.308.25-.465l.043-.078.469-.843q.299-.55.597-1.106.336-.625.676-1.25l.543-.996.082-.148.371-.684c.512-.953.512-.953.766-1.402l.055-.094q.06-.102.125-.203M15.782 0q2.151-.007 4.304-.008l.512-.004h.101l1.637-.004h1.684l1.039-.004h1.12c1.403-.007 2.473.387 3.481 1.41.883.965 1.477 2.153 2.106 3.298l.078.136.136.254q.194.344.399.684l.113-.078q.505-.351 1.028-.684.28-.18.554-.371l.117-.078.227-.156.105-.07.09-.063c.082-.043.082-.043.211.004L34.07 5.64l-.222.41-.38.687q-.393.727-.792 1.453-.41.738-.813 1.48l-.746 1.364-.07.13-.14.253a3 3 0 0 0-.313.719c-.09.199-.18.351-.36.48-.234.055-.468.047-.71.043h-.68q-.354-.001-.707.004c-.461 0-.918.004-1.375 0h-3.453l-3.024-.004v-.086l.11-.058c.644-.352 1.289-.7 1.921-1.07q.48-.281.973-.544a2 2 0 0 0-.144-.464l-.067-.149-.07-.16-.035-.082c-.97-2.2-2.067-4.352-3.504-6.266l-.059-.078a22 22 0 0 0-1.297-1.57l-.187-.211a9 9 0 0 0-.817-.824l-.136-.125a8 8 0 0 0-.903-.711A2.3 2.3 0 0 1 15.781 0"/>
  <path style="stroke:none;fill-rule:nonzero;fill:#fafafa;fill-opacity:1" d="M.344 24.09c.12.055.215.117.316.207l.086.074.09.078c1.02.871 2.476 2.016 3.867 2.02h.938l.5.004h.863l1.254.004 2.031.007 1.973.004h.12l.61.004 5.063.016v3.25l.004 1.508v2.015a98 98 0 0 1-.047 3.38q-1.544.009-3.086.015l-1.434.004q-.623.005-1.246.004l-.66.004q-.315.004-.625.003h-.227a3 3 0 0 1-1.386-.293l-.2-.086-.16-.078-.086-.043a8 8 0 0 1-1.613-1.07l-.066-.055a14 14 0 0 1-1.02-.957l-.117-.12q-.387-.405-.727-.844l-.136-.176c-.688-.875-1.29-1.84-1.836-2.817l-.07-.12a51 51 0 0 1-1.051-2.009l-.168-.324c-.336-.648-.657-1.308-.977-1.965l-.246-.507-.191-.391-.09-.188-.13-.257-.07-.149c-.05-.11-.05-.11-.05-.152"/>
  <path style="stroke:none;fill-rule:nonzero;fill:#f9f9f9;fill-opacity:1" d="M.043 12.836h9.605l.602 1.14.414.75q.258.476.504.958.304.586.633 1.168.3.55.59 1.113c.175.328.347.656.527.984l.457.84.043.086q.411.763.816 1.531c-.144 0-.191-.027-.316-.105l-.117-.07-.13-.079-.136-.082-.375-.226-.344-.211c-.586-.356-1.168-.711-1.754-1.07l-.042.152c-.098.3-.239.578-.375.86l-.297.62q-.219.464-.43.934c-.188.414-.375.824-.57 1.234q-.405.862-.797 1.735l-.266.582-.039.093c-.094.2-.094.2-.14.25a7 7 0 0 1-.274.004h-.48l-.668-.004h-.38l-.652-.007h-.254c-.722-.004-1.335-.13-1.988-.457l-.113-.055c-1.121-.578-2-1.52-2.652-2.602l-.047-.078a9 9 0 0 1-.473-.91l-.04-.086c-.089-.207-.085-.336-.042-.555.059-.148.059-.148.133-.304l.043-.086.136-.281.094-.196.281-.582.04-.086.32-.652q.25-.511.488-1.027.251-.545.52-1.082c.191-.399.382-.793.566-1.196.18-.383.363-.761.55-1.144l-.089-.035a4 4 0 0 1-.352-.176l-.136-.074-.145-.079-.148-.085q-.547-.3-1.086-.618a75 75 0 0 0-1.215-.691Zm0 0"/>
  <path style="stroke:none;fill-rule:nonzero;fill:#fafafa;fill-opacity:1" d="M36.152 12.66q.798 1.613 1.594 3.23l.738 1.505q.322.65.645 1.308l.34.692c.11.218.215.433.324.652l.117.238c.274.543.41.969.278 1.582-.274.856-.778 1.528-1.38 2.176l-.09.102c-.835.91-2.175 1.789-3.425 1.835h-.281l-.106-.003-.343-.004-.243-.004-.633-.008-.644-.008-1.266-.02-.054-.105-.207-.39-.086-.168-.785-1.493-.211-.394q-.334-.637-.672-1.274l-1.024-1.933-.14-.262-.36-.68-.074-.14-.14-.266q-.234-.439-.45-.894c.438-.282.883-.563 1.328-.832l1.024-.633.074-.047.383-.238.824-.516.227-.14.074-.048.453-.28q.82-.511 1.64-1.016c.313-.192.63-.387.942-.582l.23-.145.075-.047.218-.137.278-.171.363-.223.105-.07.098-.059.086-.055c.07-.035.07-.035.156-.035"/>
  <path style="stroke:none;fill-rule:nonzero;fill:#f9f9f9;fill-opacity:1" d="m14.625.352.086.027c.762.223 1.473.61 2.082 1.129a9.6 9.6 0 0 1 1.605 1.656l.118.148q.241.305.476.614l.235.316.074.102.07.093.059.086c.058.133.03.215-.004.356-.055.133-.055.133-.13.273l-.038.078-.13.25-.089.176-.254.496-.117.23-.152.294q-.269.522-.532 1.05l-.808 1.583-.25.5-.43.84-.371.738-.062.125c-.215.418-.43.832-.668 1.234-.204-.07-.38-.184-.563-.3l-.102-.063q-.409-.262-.812-.524a50 50 0 0 0-.836-.539 65 65 0 0 1-1.02-.66l-.824-.527q-.514-.329-1.02-.656l-.823-.532-1.02-.656c-.336-.215-.668-.434-1.004-.644l-.129-.082-.113-.07-.223-.153c.07-.219.196-.395.32-.586l.075-.11.156-.238.426-.64.09-.133q.446-.684.886-1.367c.496-.782 1.004-1.555 1.512-2.328l.145-.215q.178-.264.343-.54l.067-.109q.066-.1.125-.207c.172-.273.37-.367.672-.457l.09-.02.195-.038.168-.043c.77-.18 1.687-.192 2.449.043"/>
</svg>
